#!OML:ASF I:\salsa\salsa 7_09\Patient 1\Session 1\dancerfemale.ASF
:FULLY-SPECIFIED
:DEGREES
1338
root 7.70936 15.6989 -1.38086 -391.789 -81.0836 27.9268
lowerback 21.6352 5.13326 -6.46168
upperback -3.1919 5.04245 -0.228777
thorax -16.541 2.82063 1.60482
lowerneck -2.51703 -3.64563 -7.02725
upperneck 13.8167 -5.73943 8.26657
head 4.97735 -2.792 3.42158
rclavicle -4.43973e-014 1.92821e-014
rhumerus -71.2025 13.3212 -89.9603
rradius 120.665
rwrist -46.4407
rhand 36.3645 381.476
rfingers 7.12502
rthumb 59.3194 7.00096
lclavicle -4.43973e-014 1.92821e-014
lhumerus 8.42508 55.1898 51.514
lradius 59.6849
lwrist -30.8995
lhand -27.2175 49.3202
lfingers 7.12502
lthumb -0.630147 -280.701
rfemur -29.5777 -5.94996 11.7966
rtibia 43.8761
rfoot -18.8722 -8.98547
rtoes -31.3697
lfemur -3.85313 -7.43619 -28.6391
ltibia 35.2585
lfoot -29.8516 -2.85907
ltoes 6.23026
1339
root 7.89292 15.6578 -1.30934 -397.378 -79.9325 33.5467
lowerback 21.7596 5.22023 -6.49253
upperback -3.0346 5.01529 -0.953683
thorax -16.3466 2.74953 0.794253
lowerneck -2.37071 -3.94528 -7.61806
upperneck 13.7099 -6.14617 8.5649
head 4.9791 -3.00687 3.59119
rclavicle 5.68089e-015 9.83984e-015
rhumerus -71.8309 12.3846 -90.1152
rradius 120.591
rwrist -46.2507
rhand 36.6395 381.647
rfingers 7.12502
rthumb 59.556 7.40914
lclavicle 5.68089e-015 9.83984e-015
lhumerus 10.742 54.0976 55.1216
lradius 60.817
lwrist -31.1544
lhand -27.96 50.3602
lfingers 7.12502
lthumb -1.34725 -279.664
rfemur -30.5872 -6.91264 10.4359
rtibia 48.2049
rfoot -18.7627 -9.18124
rtoes -28.9006
lfemur -4.72586 -7.27205 -30.4076
ltibia 35.5982
lfoot -29.5188 -3.0443
ltoes 7.01291
1340
root 8.06426 15.6166 -1.2429 -402.848 -78.2454 39.1645
lowerback 21.7551 5.24245 -6.96839
upperback -2.91653 4.75378 -1.86155
thorax -16.1378 2.6032 0.116594
lowerneck -2.32726 -4.18383 -8.23642
upperneck 13.8428 -6.49461 8.93779
head 5.07323 -3.18867 3.79045
rclavicle -2.24735e-014 1.75924e-014
rhumerus -72.3976 11.6088 -90.3047
rradius 120.449
rwrist -46.2383
rhand 37.0357 381.948
rfingers 7.12502
rthumb 59.8958 8.05831
lclavicle -2.24735e-014 1.75924e-014
lhumerus 12.4134 53.0162 58.3437
lradius 62.578
lwrist -31.7575
lhand -28.3447 50.9589
lfingers 7.12502
lthumb -1.71878 -279.068
rfemur -31.4291 -8.29665 8.62178
rtibia 52.5208
rfoot -17.7472 -9.27448
rtoes -30.5184
lfemur -5.54013 -6.9918 -32.5567
ltibia 35.7774
lfoot -29.0628 -3.54878
ltoes 7.60547
1341
root 8.21221 15.6111 -1.17562 -401.459 -77.7621 38.32
lowerback 20.9525 4.97659 -5.80989
upperback -2.94141 4.69706 -2.41939
thorax -15.5167 2.44474 -1.08052
lowerneck -2.41149 -4.406 -8.9046
upperneck 14.1847 -6.86152 9.52722
head 5.26695 -3.36794 4.06311
rclavicle -5.41352e-014 2.68546e-014
rhumerus -72.8713 10.899 -90.551
rradius 120.294
rwrist -46.231
rhand 37.2325 382.322
rfingers 7.12502
rthumb 60.0641 8.60885
lclavicle -5.41352e-014 2.68546e-014
lhumerus 13.5924 52.0116 61.307
lradius 64.0244
lwrist -32.7605
lhand -28.9325 50.6141
lfingers 7.12502
lthumb -2.28655 -279.418
rfemur -32.2142 -9.49451 8.87871
rtibia 56.4881
rfoot -15.1659 -8.72064
rtoes -36.5486
lfemur -6.69589 -6.36794 -32.6715
ltibia 35.7986
lfoot -28.5622 -4.58668
ltoes 8.55545
1342
root 8.35505 15.597 -1.11341 -403.268 -76.653 40.5864
lowerback 20.2571 4.78677 -5.65413
upperback -2.90083 4.40876 -3.23611
thorax -14.9574 2.25229 -1.93503
lowerneck -2.55005 -4.59651 -9.43024
upperneck 14.5973 -7.19831 10.0881
head 5.4878 -3.52551 4.30467
rclavicle -8.76237e-014 2.18663e-014
rhumerus -73.172 10.5093 -90.8127
rradius 120.073
rwrist -46.2439
rhand 37.2874 383.006
rfingers 7.12502
rthumb 60.1111 9.34254
lclavicle -8.76237e-014 2.18663e-014
lhumerus 14.1444 51.0424 63.6112
lradius 65.4556
lwrist -34.0365
lhand -29.3787 51.0446
lfingers 7.12502
lthumb -2.71746 -278.993
rfemur -32.6708 -10.8451 8.09641
rtibia 60.387
rfoot -16.3325 -8.16426
rtoes -30.6521
lfemur -7.58685 -5.43074 -33.7695
ltibia 35.6202
lfoot -27.9258 -5.86506
ltoes 9.4281
